<?xml version="1.0" encoding="utf-8"?>
<!-- Generator: Adobe Illustrator 22.0.0, SVG Export Plug-In . SVG Version: 6.00 Build 0)  -->
<svg version="1.1" xmlns="http://www.w3.org/2000/svg" xmlns:xlink="http://www.w3.org/1999/xlink" x="0px" y="0px"
	 viewBox="0 0 59.6 184.8" style="enable-background:new 0 0 59.6 184.8;" xml:space="preserve">
<style type="text/css">
	.st0{fill:#FFFFFF;}
</style>
<g id="Layer_1">
</g>
<g id="Layer_2">
	<path class="st0" d="M48.2,131.1v-113C48.2,8.1,40,0,30,0S11.8,8.1,11.8,18.1v113C4.4,136.8,0,145.6,0,155c0,16.5,13.5,30,30,30
		s30-13.5,30-30C60,145.6,55.6,136.8,48.2,131.1z M30,177.1c-12.2,0-22.1-9.9-22.1-22.1c0-7.5,3.8-14.4,10.1-18.5l1.8-1.2V18.1
		c0-5.7,4.6-10.3,10.3-10.3s10.3,4.6,10.3,10.3v117.2l1.8,1.2c6.3,4.1,10.1,11,10.1,18.5C52.1,167.2,42.2,177.1,30,177.1z"/>
	<path class="st0" d="M47.7,155c0,9.8-7.9,17.7-17.7,17.7s-17.7-7.9-17.7-17.7c0-6,3-11.5,8-14.8l1.8-1.2l2-1.3v-40
		c0-3.2,2.6-5.8,5.8-5.8s5.8,2.6,5.8,5.8v40l2,1.3l1.8,1.2C44.7,143.5,47.7,149,47.7,155z"/>
</g>
</svg>
